<?xml version="1.0" encoding="UTF-8"?>
<!DOCTYPE svg PUBLIC "-//W3C//DTD SVG 1.1//EN" "http://www.w3.org/Graphics/SVG/1.1/DTD/svg11.dtd">
<!-- Creator: CorelDRAW X7 -->
<svg xmlns="http://www.w3.org/2000/svg" xml:space="preserve" width="45.2364mm" height="12.7435mm" version="1.1" style="shape-rendering:geometricPrecision; text-rendering:geometricPrecision; image-rendering:optimizeQuality; fill-rule:evenodd; clip-rule:evenodd"
viewBox="0 0 149411 42090"
 xmlns:xlink="http://www.w3.org/1999/xlink">
 <defs>
  <style type="text/css">
   <![CDATA[
    .fil0 {fill:white}
   ]]>
  </style>
 </defs>
 <g id="Layer_x0020_1">
  <metadata id="CorelCorpID_0Corel-Layer"/>
  <g id="jquery-2.svg">
   <polygon class="fil0" points="42689,16441 42689,16439 41495,20670 42689,16441 "/>
   <polygon class="fil0" points="48828,25625 47512,25617 "/>
   <polygon class="fil0" points="48490,31943 48491,31943 40610,31972 48490,31943 "/>
   <polygon class="fil0" points="50142,25632 48826,25625 "/>
   <polygon class="fil0" points="49180,31406 50553,26171 49180,31407 49180,31406 "/>
   <polygon class="fil0" points="78195,7296 75639,19318 "/>
   <polygon class="fil0" points="71622,7296 69680,16277 71622,7295 "/>
   <path class="fil0" d="M77757 6755l-5468 0c-303,0 -604,244 -669,540l-1942 8982 -1941 8981c-64,296 -365,539 -668,539l-3871 0c-3829,0 -3386,-2649 -2602,-6277 8,-36 16,-72 24,-109l86 -457c5,-30 11,-60 16,-87l175 -931 187 -998c57,-301 143,-741 200,-1017l882 -4312 884 -4312c60,-298 -139,-542 -442,-542l-5613 0c-304,0 -604,244 -666,541l-1207 5726 -1206 5725c-2,2 -2,6 -2,8l-113 533c-1390,6346 -1021,12398 6534,12587 123,4 219,5 219,5l11859 0c303,0 604,-244 667,-541l2558 -12021 2557 -12021c62,-298 -134,-541 -438,-542l0 0z"/>
   <g>
    <path class="fil0" d="M99572 25860c304,0 502,244 441,540l-531 2596 90 -3136zm0 0l0 0 0 0z"/>
   </g>
   <path class="fil0" d="M98952 31592l531 -2597 -531 2598c0,-1 0,-1 0,-1l0 0z"/>
   <path class="fil0" d="M98286 32138c1,0 2,0 2,0 -1608,13 -6444,49 -10079,49 4423,1 10077,-49 10077,-49l0 0z"/>
   <path class="fil0" d="M84947 22517c-5,-284 319,-774 623,-774l-684 -11c-307,3095 61,785 61,785l0 0z"/>
   <path class="fil0" d="M88707 32187c-34,0 -70,0 -106,0 36,0 72,0 106,0z"/>
   <g>
    <path class="fil0" d="M99572 25860c304,0 502,244 441,540l-531 2596 -86 423 176 -3559zm0 0l0 0 0 0z"/>
   </g>
   <polygon class="fil0" points="91297,32180 91274,32180 "/>
   <polygon class="fil0" points="89954,32184 89875,32184 "/>
   <path class="fil0" d="M89544 32186c-44,0 -86,0 -129,1 43,-1 85,-1 129,-1z"/>
   <polygon class="fil0" points="89128,32187 89015,32187 "/>
   <path class="fil0" d="M89876 32184c-111,0 -221,1 -332,1 110,0 220,-1 332,-1z"/>
   <path class="fil0" d="M91274 32180c-442,2 -884,4 -1319,5 436,-1 878,-3 1319,-5z"/>
   <path class="fil0" d="M98290 32138l0 0c-1179,9 -4092,32 -6995,43 2902,-11 5815,-34 6995,-43z"/>
   <path class="fil0" d="M98952 31593l445 -2174 -445 2176c0,0 0,0 0,-2l0 0z"/>
   <polygon class="fil0" points="89416,32187 89128,32187 "/>
   <polygon class="fil0" points="88600,32188 88210,32188 "/>
   <polygon class="fil0" points="89013,32187 88705,32187 "/>
   <path class="fil0" d="M9025 22582l849 -3765 -970 4304 -932 4384 816 -3842c63,-298 170,-785 237,-1081l0 0z"/>
   <path class="fil0" d="M19191 6692l-6005 0c-303,0 -606,242 -674,538l-569 2514 -569 2514c-68,296 126,538 430,538l6052 0c303,0 605,-242 670,-539l550 -2513 550 -2512 0 -1c65,-297 -130,-539 -435,-539l0 0z"/>
   <polygon class="fil0" points="17884,15053 17884,15052 16123,23200 "/>
   <path class="fil0" d="M440 42051c0,0 3027,39 4951,39 -1462,0 -3876,-27 -4954,-39 1,0 2,0 3,0l0 0z"/>
   <polygon class="fil0" points="10723,15052 9873,18817 "/>
   <path class="fil0" d="M17450 14513l-6052 0c-304,0 -607,242 -674,539l-850 3766 -850 3765c-67,296 -174,783 -236,1079l-817 3843 -817 3845c-63,296 -194,775 -291,1063 0,0 -1131,3365 -3032,3326 -81,-1 -159,-2 -237,-4 -921,-18 -1645,-31 -1645,-31l-1 0c-303,-5 -608,233 -679,526l-627 2639 -627 2637c-70,295 119,537 421,543 1078,13 3493,41 4954,41 4749,0 7251,-2632 8856,-10201l1878 -8689 1761 -8149c65,-295 -132,-538 -435,-538l0 0z"/>
   <g>
    <path class="fil0" d="M103429 31879c-304,0 -500,-243 -436,-541l4553 -21326 -4117 21867zm0 0l0 0 0 0z"/>
   </g>
   <polygon class="fil0" points="109756,31338 111599,22235 "/>
   <path class="fil0" d="M103058 31609c-37,-148 -15,-513 49,-810l2161 -10123 -2276 10662c-64,298 132,542 434,542l553 0c-302,0 -885,-122 -921,-271l0 0z"/>
   <path class="fil0" d="M109396 31758c-165,67 -549,121 -853,121l553 0c304,0 602,-243 661,-541l109 -541c-59,297 -304,894 -470,961l0 0z"/>
   <path class="fil0" d="M110678 26786l812 -4017c-1,2 -1,6 -2,8l-810 4009 0 0z"/>
   <g>
    <path class="fil0" d="M128644 11440l251 1037c69,296 -123,537 -426,538l175 -1575zm0 0l0 0 0 0z"/>
   </g>
   <polygon class="fil0" points="109867,30797 110679,26787 "/>
   <polygon class="fil0" points="128394,10379 128642,11441 "/>
   <path class="fil0" d="M111490 22769c61,-297 161,-779 224,-1074l868 -4066 -984 4606 -108 534 0 0z"/>
   <path class="fil0" d="M107619 9662c-60,287 -137,650 -190,890l-2159 10124 2276 -10664 73 -350 0 0z"/>
   <path class="fil0" d="M128893 12477l-251 -1037 -248 -1061 -126 -538c-492,-1909 -1933,-3012 -5067,-3012l-4878 -6 -4493 -5 -5057 0c-303,0 -604,243 -666,541l0 0 -224 1056 -263 1247 -73 350 -2277 10663 -2160 10123c-64,297 -86,662 -49,811 36,149 619,271 924,271l4561 0c304,0 688,-56 853,-122 166,-67 410,-664 471,-962l812 -4010 811 -4009c1,-2 1,-5 2,-7l108 -534 983 -4606 869 -4069c64,-296 363,-537 666,-538l14352 -7c297,-2 489,-243 420,-539l0 0z"/>
   <path class="fil0" d="M147367 3106c-304,3 -801,4 -1104,4l-4594 0c-304,0 -693,206 -863,456l-10156 14881c-172,251 -369,213 -435,-82l-748 -3279c-68,-296 -371,-538 -674,-538l-6530 0c-304,0 -484,238 -401,530l2926 10250c82,293 89,773 14,1066l-1276 4961c-76,295 111,535 415,535l6453 0c303,0 614,-241 689,-535l1276 -4961c75,-294 286,-734 470,-976l16490 -21884c183,-243 84,-440 -219,-438l-1733 10 0 0z"/>
   <path class="fil0" d="M95491 15944l0 -7c-38,330 -344,572 -647,572l-8278 0c-286,0 -433,-195 -389,-435 2,-7 4,-13 6,-19 0,0 -2,1 -6,3 3,-10 3,-18 6,-28 0,0 17,-58 37,-140 791,-2102 2402,-3482 5429,-3482 3408,-1 4074,1664 3842,3536l0 0zm-2429 -9556c-10626,0 -13144,6450 -14557,12960 -1413,6636 -1291,12840 9705,12840l390 0c35,-1 71,-1 106,-1l711 0c43,-1 84,-1 128,-1 110,0 220,-1 333,-1l78 0c434,0 876,-3 1318,-4l23 0c2903,-12 5816,-33 6995,-43 302,-6 598,-248 660,-543l445 -2176 87 -423 531 -2595c61,-297 -138,-541 -441,-541l-9885 0c-3932,0 -5100,-1045 -4670,-4117l15803 0 -2 2c4,0 7,-2 11,-2 251,-5 483,-177 575,-409 18,-44 32,-90 39,-138l-2 2c2344,-8849 1671,-14810 -8381,-14810l0 0z"/>
   <path class="fil0" d="M42838 15910l-149 529c0,2 0,2 0,2l-1194 4229 -1192 4228c-83,292 -398,531 -703,531l-6316 0c-4790,0 -5957,-3747 -4790,-9274 1166,-5652 3453,-9166 8168,-9522 6443,-486 7732,4046 6176,9277l0 0zm4332 9194c0,0 2977,-7230 3654,-11407 926,-5590 -1873,-13697 -12685,-13697 -10750,0 -15417,7740 -17199,16155 -1781,8476 553,15908 11241,15848l8432 -32 7881 -28c303,-3 613,-244 691,-537l1373 -5236c76,-294 -110,-536 -413,-537l-1315 -7 -1316 -7c-258,-3 -406,-169 -374,-391 5,-40 14,-81 32,-123l-2 0 0 -1 0 0z"/>
   <path class="fil0" d="M100383 20265c0,200 -162,363 -362,363 -200,0 -362,-163 -362,-363 0,-200 162,-362 362,-362 200,0 362,161 362,362z"/>
  </g>
 </g>
</svg>
