<?xml version="1.0" encoding="UTF-8"?>
<!DOCTYPE svg PUBLIC "-//W3C//DTD SVG 1.1//EN" "http://www.w3.org/Graphics/SVG/1.1/DTD/svg11.dtd">
<!-- Creator: CorelDRAW X7 -->
<svg xmlns="http://www.w3.org/2000/svg" xml:space="preserve" width="17.5141mm" height="17.5141mm" version="1.1" style="shape-rendering:geometricPrecision; text-rendering:geometricPrecision; image-rendering:optimizeQuality; fill-rule:evenodd; clip-rule:evenodd"
viewBox="0 0 643 643"
 xmlns:xlink="http://www.w3.org/1999/xlink">
 <defs>
  <style type="text/css">
   <![CDATA[
    .fil0 {fill:white}
   ]]>
  </style>
 </defs>
 <g id="Layer_x0020_1">
  <metadata id="CorelCorpID_0Corel-Layer"/>
  <g id="laravel.svg">
   <g>
    <path class="fil0" d="M403 522c5,8 8,7 12,5 4,-1 205,-69 211,-71 6,-3 4,-5 2,-8 -2,-3 -69,-94 -72,-99 -4,-5 -5,-4 -11,-2l-212 55c0,0 65,113 70,120l0 0z"/>
    <path class="fil0" d="M643 430l0 -107c-24,7 -54,15 -66,18 18,24 46,62 66,89l0 0z"/>
    <path class="fil0" d="M576 210c-3,0 -76,14 -80,14 -5,1 -3,3 -1,6l64 88c0,0 78,-20 83,-21 0,0 0,0 1,0l0 -12c-14,-18 -53,-67 -56,-71 -4,-6 -7,-5 -11,-4l0 0z"/>
    <path class="fil0" d="M119 72c16,-1 17,3 24,13l174 290 218 -52c-12,-17 -67,-95 -72,-102 -6,-9 0,-13 10,-14 10,-2 93,-16 100,-17 7,-1 13,-4 25,10 6,8 26,33 45,56l0 -135c0,-34 -12,-62 -36,-86 -23,-23 -52,-35 -85,-35l-401 0c-34,0 -62,12 -86,35 -13,14 -23,29 -29,46 40,-4 102,-9 113,-9l0 0z"/>
    <path class="fil0" d="M423 561c-19,6 -27,9 -39,-8 -9,-13 -58,-100 -81,-143 -46,12 -128,33 -152,39 -23,5 -33,-8 -37,-17 -3,-6 -71,-153 -114,-247l0 337c0,33 12,62 35,85 24,24 52,36 86,36l401 0c33,0 62,-12 85,-36 24,-23 36,-52 36,-85l0 -39c-49,18 -208,75 -220,78l0 0z"/>
    <path class="fil0" d="M152 415c6,-1 129,-31 131,-31 3,-1 4,-2 2,-7 -3,-5 -163,-282 -163,-282 -2,-2 -1,-3 -5,-3 -4,0 -95,8 -116,10 0,5 -1,9 -1,14 21,43 144,295 144,298 1,2 1,3 8,1l0 0z"/>
   </g>
  </g>
 </g>
</svg>
