<?xml version="1.0" encoding="UTF-8"?>
<!DOCTYPE svg PUBLIC "-//W3C//DTD SVG 1.1//EN" "http://www.w3.org/Graphics/SVG/1.1/DTD/svg11.dtd">
<!-- Creator: CorelDRAW X7 -->
<svg xmlns="http://www.w3.org/2000/svg" xml:space="preserve" width="17.4413mm" height="17.4414mm" version="1.1" style="shape-rendering:geometricPrecision; text-rendering:geometricPrecision; image-rendering:optimizeQuality; fill-rule:evenodd; clip-rule:evenodd"
viewBox="0 0 352 352"
 xmlns:xlink="http://www.w3.org/1999/xlink"
 enable-background="new 5.5 797.5 175 175">
 <defs>
  <style type="text/css">
   <![CDATA[
    .fil0 {fill:white}
   ]]>
  </style>
 </defs>
 <g id="Layer_x0020_1">
  <metadata id="CorelCorpID_0Corel-Layer"/>
  <g id="bootstrap-icon.svg">
   <g id="outline" xmlns:inkscape="http://www.inkscape.org/namespaces/inkscape" xmlns:dc="http://purl.org/dc/elements/1.1/" xmlns:svg="http://www.w3.org/2000/svg" xmlns:sodipodi="http://sodipodi.sourceforge.net/DTD/sodipodi-0.dtd" xmlns:rdf="http://www.w3.org/1999/02/22-rdf-syntax-ns#" xmlns:cc="http://creativecommons.org/ns#" sodipodi:docname="twitter_bootstrap_logo.svg" inkscape:version="0.48.1 r9760">
    <g id="bg_1_">
     <g>
      <path class="fil0" d="M294 3c14,0 28,6 39,17 10,10 16,24 16,39l0 235c0,14 -6,28 -16,39 -11,10 -25,16 -39,16l-235 0c-15,0 -29,-6 -39,-16 -11,-11 -17,-25 -17,-39l0 -235c0,-15 6,-29 17,-39 10,-11 24,-17 39,-17l235 0 0 0zm0 -3l-235 0c-33,0 -59,26 -59,59l0 235c0,32 26,58 59,58l235 0c32,0 58,-26 58,-58l0 -235c0,-33 -26,-59 -58,-59l0 0z"/>
     </g>
    </g>
    <g id="B_2_" enable-background="new ">
     <path class="fil0" d="M96 77l100 0c18,0 33,4 44,12 11,9 17,21 17,38 0,11 -3,20 -8,27 -5,7 -12,13 -22,17l0 1c13,3 23,8 29,18 7,9 10,21 10,35 0,8 -2,15 -5,22 -2,7 -7,13 -13,18 -6,6 -14,10 -24,13 -9,3 -21,4 -34,4l-94 0 0 -205 0 0zm36 86l58 0c9,0 16,-3 22,-8 6,-5 9,-12 9,-21 0,-10 -3,-18 -8,-22 -5,-4 -13,-6 -23,-6l-58 0 0 57 0 0zm0 90l63 0c11,0 20,-3 26,-9 6,-5 9,-14 9,-24 0,-10 -3,-18 -9,-23 -6,-6 -15,-9 -26,-9l-63 0 0 65z"/>
    </g>
   </g>
  </g>
 </g>
</svg>
