<?xml version="1.0" encoding="UTF-8"?>
<!DOCTYPE svg PUBLIC "-//W3C//DTD SVG 1.1//EN" "http://www.w3.org/Graphics/SVG/1.1/DTD/svg11.dtd">
<!-- Creator: CorelDRAW X7 -->
<svg xmlns="http://www.w3.org/2000/svg" xml:space="preserve" width="52.1338mm" height="9.138mm" version="1.1" style="shape-rendering:geometricPrecision; text-rendering:geometricPrecision; image-rendering:optimizeQuality; fill-rule:evenodd; clip-rule:evenodd"
viewBox="0 0 10431 1828"
 xmlns:xlink="http://www.w3.org/1999/xlink">
 <defs>
  <style type="text/css">
   <![CDATA[
    .fil0 {fill:white;fill-rule:nonzero}
   ]]>
  </style>
 </defs>
 <g id="Layer_x0020_1">
  <metadata id="CorelCorpID_0Corel-Layer"/>
  <path class="fil0" d="M1104 1325l-776 0 -176 480 -152 0 647 -1711 138 0 647 1711 -150 0 -178 -480zm-731 -123l686 0 -344 -932 -342 932z"/>
  <path id="1" class="fil0" d="M1594 1157c0,-98 12,-188 34,-267 23,-80 56,-147 98,-204 42,-56 93,-100 154,-130 61,-31 130,-46 205,-46 91,0 168,18 233,54 64,36 118,86 160,149l0 -713 140 0 0 1805 -132 0 -6 -170c-42,61 -96,108 -161,142 -66,34 -144,51 -236,51 -75,0 -143,-16 -203,-47 -61,-32 -112,-77 -154,-133 -42,-57 -75,-125 -98,-204 -22,-79 -34,-166 -34,-262l0 -25zm142 25c0,74 8,143 23,207 15,64 37,120 68,167 31,47 69,83 116,110 46,27 101,40 166,40 48,0 91,-6 130,-17 38,-11 73,-27 103,-48 30,-20 57,-44 79,-73 22,-28 41,-58 57,-91l0 -597c-14,-32 -32,-63 -52,-93 -20,-29 -45,-56 -75,-79 -30,-23 -64,-41 -104,-56 -38,-13 -84,-20 -136,-20 -65,0 -121,14 -168,41 -47,27 -85,64 -116,111 -31,47 -53,102 -68,166 -15,65 -23,134 -23,207l0 25z"/>
  <path id="2" class="fil0" d="M3116 533l4 207c22,-34 46,-66 74,-94 28,-29 59,-53 93,-73 35,-20 72,-36 113,-47 41,-11 85,-16 132,-16 93,0 173,19 239,59 67,39 114,102 143,188 20,-36 44,-68 73,-98 29,-31 61,-57 98,-79 36,-21 76,-39 120,-51 44,-13 91,-19 142,-19 66,0 125,9 176,26 52,18 96,46 131,84 36,38 63,86 82,145 19,59 28,129 28,212l0 828 -141 0 0 -830c0,-67 -7,-123 -22,-167 -15,-44 -36,-80 -64,-106 -27,-26 -60,-44 -98,-55 -38,-10 -79,-15 -125,-15 -59,1 -112,12 -156,33 -45,20 -83,46 -114,78 -30,32 -54,67 -72,106 -17,40 -27,78 -30,114l0 842 -141 0 0 -841c0,-63 -8,-116 -22,-158 -15,-42 -37,-77 -64,-102 -27,-26 -60,-45 -98,-56 -38,-10 -80,-16 -126,-16 -54,0 -101,8 -142,25 -40,17 -76,40 -106,68 -30,28 -55,60 -74,96 -20,36 -36,73 -47,112l0 872 -141 0 0 -1272 135 0z"/>
  <path id="3" class="fil0" d="M5278 1805l-142 0 0 -1272 142 0 0 1272zm-166 -1639c0,-27 8,-49 26,-68 17,-18 41,-27 70,-27 30,0 54,9 71,27 18,19 27,41 27,68 0,26 -9,49 -27,67 -17,18 -41,26 -71,26 -29,0 -53,-8 -70,-26 -18,-18 -26,-41 -26,-67z"/>
  <path id="4" class="fil0" d="M5793 533l5 218c22,-36 47,-69 76,-99 28,-30 61,-55 95,-76 36,-21 74,-38 115,-49 40,-11 84,-17 129,-17 63,0 120,9 170,26 50,17 93,44 128,82 34,38 61,86 80,145 18,59 27,130 27,214l0 828 -140 0 0 -828c0,-66 -7,-121 -21,-165 -14,-44 -34,-79 -60,-106 -26,-27 -57,-45 -94,-57 -38,-11 -79,-17 -124,-17 -50,0 -96,8 -137,25 -40,17 -76,40 -107,68 -32,28 -59,60 -82,97 -22,36 -40,74 -54,112l0 871 -140 0 0 -1272 134 0z"/>
  <polygon id="5" class="fil0" points="7098,1741 7975,1741 7975,1805 7033,1805 7033,94 7098,94 "/>
  <polygon id="6" class="fil0" points="9090,158 8467,158 8467,1805 8404,1805 8404,158 7781,158 7781,94 9090,94 "/>
  <polygon id="7" class="fil0" points="10311,956 9453,956 9453,1741 10431,1741 10431,1805 9390,1805 9390,94 10431,94 10431,158 9453,158 9453,893 10311,893 "/>
 </g>
</svg>
